<svg width="847" height="1828" viewBox="0 0 847 1828" class="keymap" xmlns="http://www.w3.org/2000/svg" xmlns:xlink="http://www.w3.org/1999/xlink">
<style>/* font and background color specifications */
svg {
    font-family: SFMono-Regular,Consolas,Liberation Mono,Menlo,monospace;
    font-size: 14px;
    font-kerning: normal;
    text-rendering: optimizeLegibility;
    fill: #24292e;
}

/* default key styling */
rect {
    fill: #f6f8fa;
    stroke: #c9cccf;
    stroke-width: 1;
}

/* color accent for combo boxes */
rect.combo {
    fill: #cdf;
}

/* color accent for held keys */
rect.held, rect.combo.held {
    fill: #fdd;
}

/* color accent for ghost (optional) keys */
rect.ghost, rect.combo.ghost {
    fill: #ddd;
}

text {
    text-anchor: middle;
    dominant-baseline: middle;
}

/* styling for layer labels */
text.label {
    font-weight: bold;
    text-anchor: start;
    stroke: white;
    stroke-width: 2;
    paint-order: stroke;
}

/* styling for combo tap, and key hold/shifted label text */
text.combo, text.hold, text.shifted {
    font-size: 11px;
}

text.hold {
    text-anchor: middle;
    dominant-baseline: auto;
}

text.shifted {
    text-anchor: middle;
    dominant-baseline: hanging;
}

/* styling for hold/shifted label text in combo box */
text.combo.hold, text.combo.shifted {
    font-size: 8px;
}

/* styling for combo dendrons */
path {
    stroke-width: 1;
    stroke: gray;
    fill: none;
}
</style>
<g transform="translate(30, 0)" class="layer-default">
<text x="0" y="28" class="label" id="default">default:</text>
<g transform="translate(0, 56)">
<g transform="translate(30, 87)" class="key keypos-0">
<rect rx="6" ry="6" x="-28" y="-26" width="55" height="52" class="key"/>
<text x="0" y="0" class="key tap">
<tspan x="0" dy="-0.6em">SV</tspan><tspan x="0" dy="1.2em">Q</tspan>
</text>
</g>
<g transform="translate(89, 48)" class="key keypos-1">
<rect rx="6" ry="6" x="-28" y="-26" width="55" height="52" class="key"/>
<text x="0" y="0" class="key tap">
<tspan x="0" dy="-0.6em">SV</tspan><tspan x="0" dy="1.2em">W</tspan>
</text>
</g>
<g transform="translate(148, 28)" class="key keypos-2">
<rect rx="6" ry="6" x="-28" y="-26" width="55" height="52" class="key"/>
<text x="0" y="0" class="key tap">
<tspan x="0" dy="-0.6em">SV</tspan><tspan x="0" dy="1.2em">E</tspan>
</text>
</g>
<g transform="translate(208, 50)" class="key keypos-3">
<rect rx="6" ry="6" x="-28" y="-26" width="55" height="52" class="key"/>
<text x="0" y="0" class="key tap">
<tspan x="0" dy="-0.6em">SV</tspan><tspan x="0" dy="1.2em">R</tspan>
</text>
</g>
<g transform="translate(267, 58)" class="key keypos-4">
<rect rx="6" ry="6" x="-28" y="-26" width="55" height="52" class="key"/>
<text x="0" y="0" class="key tap">
<tspan x="0" dy="-0.6em">SV</tspan><tspan x="0" dy="1.2em">T</tspan>
</text>
</g>
<g transform="translate(520, 58)" class="key keypos-5">
<rect rx="6" ry="6" x="-28" y="-26" width="55" height="52" class="key"/>
<text x="0" y="0" class="key tap">
<tspan x="0" dy="-0.6em">SV</tspan><tspan x="0" dy="1.2em">Y</tspan>
</text>
</g>
<g transform="translate(580, 50)" class="key keypos-6">
<rect rx="6" ry="6" x="-28" y="-26" width="55" height="52" class="key"/>
<text x="0" y="0" class="key tap">
<tspan x="0" dy="-0.6em">SV</tspan><tspan x="0" dy="1.2em">U</tspan>
</text>
</g>
<g transform="translate(639, 28)" class="key keypos-7">
<rect rx="6" ry="6" x="-28" y="-26" width="55" height="52" class="key"/>
<text x="0" y="0" class="key tap">
<tspan x="0" dy="-0.6em">SV</tspan><tspan x="0" dy="1.2em">I</tspan>
</text>
</g>
<g transform="translate(698, 48)" class="key keypos-8">
<rect rx="6" ry="6" x="-28" y="-26" width="55" height="52" class="key"/>
<text x="0" y="0" class="key tap">
<tspan x="0" dy="-0.6em">SV</tspan><tspan x="0" dy="1.2em">O</tspan>
</text>
</g>
<g transform="translate(758, 87)" class="key keypos-9">
<rect rx="6" ry="6" x="-28" y="-26" width="55" height="52" class="key"/>
<text x="0" y="0" class="key tap">
<tspan x="0" dy="-0.6em">SV</tspan><tspan x="0" dy="1.2em">P</tspan>
</text>
</g>
<g transform="translate(30, 143)" class="key keypos-10">
<rect rx="6" ry="6" x="-28" y="-26" width="55" height="52" class="key"/>
<text x="0" y="0" class="key tap">
<tspan x="0" dy="-0.6em">SV</tspan><tspan x="0" dy="1.2em">A</tspan>
</text>
</g>
<g transform="translate(89, 104)" class="key keypos-11">
<rect rx="6" ry="6" x="-28" y="-26" width="55" height="52" class="key"/>
<text x="0" y="0" class="key tap">
<tspan x="0" dy="-0.6em">SV</tspan><tspan x="0" dy="1.2em">S</tspan>
</text>
</g>
<g transform="translate(148, 84)" class="key keypos-12">
<rect rx="6" ry="6" x="-28" y="-26" width="55" height="52" class="key"/>
<text x="0" y="0" class="key tap">
<tspan x="0" dy="-0.6em">SV</tspan><tspan x="0" dy="1.2em">D</tspan>
</text>
</g>
<g transform="translate(208, 106)" class="key keypos-13">
<rect rx="6" ry="6" x="-28" y="-26" width="55" height="52" class="key"/>
<text x="0" y="0" class="key tap">
<tspan x="0" dy="-0.6em">SV</tspan><tspan x="0" dy="1.2em">F</tspan>
</text>
</g>
<g transform="translate(267, 114)" class="key keypos-14">
<rect rx="6" ry="6" x="-28" y="-26" width="55" height="52" class="key"/>
<text x="0" y="0" class="key tap">
<tspan x="0" dy="-0.6em">SV</tspan><tspan x="0" dy="1.2em">G</tspan>
</text>
</g>
<g transform="translate(520, 114)" class="key keypos-15">
<rect rx="6" ry="6" x="-28" y="-26" width="55" height="52" class="key"/>
<text x="0" y="0" class="key tap">
<tspan x="0" dy="-0.6em">SV</tspan><tspan x="0" dy="1.2em">H</tspan>
</text>
</g>
<g transform="translate(580, 106)" class="key keypos-16">
<rect rx="6" ry="6" x="-28" y="-26" width="55" height="52" class="key"/>
<text x="0" y="0" class="key tap">
<tspan x="0" dy="-0.6em">SV</tspan><tspan x="0" dy="1.2em">J</tspan>
</text>
</g>
<g transform="translate(639, 84)" class="key keypos-17">
<rect rx="6" ry="6" x="-28" y="-26" width="55" height="52" class="key"/>
<text x="0" y="0" class="key tap">
<tspan x="0" dy="-0.6em">SV</tspan><tspan x="0" dy="1.2em">K</tspan>
</text>
</g>
<g transform="translate(698, 104)" class="key keypos-18">
<rect rx="6" ry="6" x="-28" y="-26" width="55" height="52" class="key"/>
<text x="0" y="0" class="key tap">
<tspan x="0" dy="-0.6em">SV</tspan><tspan x="0" dy="1.2em">L</tspan>
</text>
</g>
<g transform="translate(758, 143)" class="key keypos-19">
<rect rx="6" ry="6" x="-28" y="-26" width="55" height="52" class="key"/>
<text x="0" y="0" class="key tap">
<tspan x="0" dy="-0.0em">SV</tspan><tspan x="0" dy="1.2em">MINUS</tspan>
</text>
<text x="0" y="-24" class="key shifted"><tspan style="font-size: 88%">SV UNDER</tspan></text>
</g>
<g transform="translate(30, 199)" class="key keypos-20">
<rect rx="6" ry="6" x="-28" y="-26" width="55" height="52" class="key"/>
<text x="0" y="0" class="key tap">
<tspan x="0" dy="-0.6em">SV</tspan><tspan x="0" dy="1.2em">Z</tspan>
</text>
</g>
<g transform="translate(89, 160)" class="key keypos-21">
<rect rx="6" ry="6" x="-28" y="-26" width="55" height="52" class="key"/>
<text x="0" y="0" class="key tap">
<tspan x="0" dy="-0.6em">SV</tspan><tspan x="0" dy="1.2em">X</tspan>
</text>
</g>
<g transform="translate(148, 140)" class="key keypos-22">
<rect rx="6" ry="6" x="-28" y="-26" width="55" height="52" class="key"/>
<text x="0" y="0" class="key tap">
<tspan x="0" dy="-0.6em">SV</tspan><tspan x="0" dy="1.2em">C</tspan>
</text>
</g>
<g transform="translate(208, 162)" class="key keypos-23">
<rect rx="6" ry="6" x="-28" y="-26" width="55" height="52" class="key"/>
<text x="0" y="0" class="key tap">
<tspan x="0" dy="-0.6em">SV</tspan><tspan x="0" dy="1.2em">V</tspan>
</text>
</g>
<g transform="translate(267, 170)" class="key keypos-24">
<rect rx="6" ry="6" x="-28" y="-26" width="55" height="52" class="key"/>
<text x="0" y="0" class="key tap">
<tspan x="0" dy="-0.6em">SV</tspan><tspan x="0" dy="1.2em">B</tspan>
</text>
</g>
<g transform="translate(520, 170)" class="key keypos-25">
<rect rx="6" ry="6" x="-28" y="-26" width="55" height="52" class="key"/>
<text x="0" y="0" class="key tap">
<tspan x="0" dy="-0.6em">SV</tspan><tspan x="0" dy="1.2em">N</tspan>
</text>
</g>
<g transform="translate(580, 162)" class="key keypos-26">
<rect rx="6" ry="6" x="-28" y="-26" width="55" height="52" class="key"/>
<text x="0" y="0" class="key tap">
<tspan x="0" dy="-0.6em">SV</tspan><tspan x="0" dy="1.2em">M</tspan>
</text>
</g>
<g transform="translate(639, 140)" class="key keypos-27">
<rect rx="6" ry="6" x="-28" y="-26" width="55" height="52" class="key"/>
<text x="0" y="0" class="key tap">
<tspan x="0" dy="-0.0em">SV</tspan><tspan x="0" dy="1.2em">COMMA</tspan>
</text>
<text x="0" y="-24" class="key shifted">SV SEMI</text>
</g>
<g transform="translate(698, 160)" class="key keypos-28">
<rect rx="6" ry="6" x="-28" y="-26" width="55" height="52" class="key"/>
<text x="0" y="0" class="key tap">
<tspan x="0" dy="-0.0em">SV</tspan><tspan x="0" dy="1.2em">DOT</tspan>
</text>
<text x="0" y="-24" class="key shifted"><tspan style="font-size: 88%">SV COLON</tspan></text>
</g>
<g transform="translate(758, 199)" class="key keypos-29">
<rect rx="6" ry="6" x="-28" y="-26" width="55" height="52" class="key"/>
<text x="0" y="0" class="key tap">
<tspan x="0" dy="-0.0em">SV</tspan><tspan x="0" dy="1.2em">QMARK</tspan>
</text>
<text x="0" y="-24" class="key shifted">SV EXCL</text>
</g>
<g transform="translate(188, 228)" class="key keypos-30">
<rect rx="6" ry="6" x="-28" y="-26" width="55" height="52" class="key"/>
<text x="0" y="0" class="key tap">⌃</text>
</g>
<g transform="translate(254, 236) rotate(15.0)" class="key keypos-31">
<rect rx="6" ry="6" x="-28" y="-26" width="55" height="52" class="key"/>
<a href="#sym">
<text x="0" y="0" class="key tap layer-activator">sym</text>
</a></g>
<g transform="translate(321, 246) rotate(30.0)" class="key keypos-32">
<rect rx="6" ry="6" x="-26" y="-42" width="52" height="85" class="key"/>
<text x="0" y="0" class="key tap">⇧</text>
<text x="0" y="-40" class="key shifted">⇪</text>
</g>
<g transform="translate(463, 246) rotate(-30.0)" class="key keypos-33">
<rect rx="6" ry="6" x="-26" y="-42" width="52" height="85" class="key"/>
<text x="0" y="0" class="key tap">SPACE</text>
</g>
<g transform="translate(533, 235) rotate(-15.0)" class="key keypos-34">
<rect rx="6" ry="6" x="-28" y="-26" width="55" height="52" class="key"/>
<a href="#nav">
<text x="0" y="0" class="key tap layer-activator">nav</text>
</a></g>
<g transform="translate(599, 228)" class="key keypos-35">
<rect rx="6" ry="6" x="-28" y="-26" width="55" height="52" class="key"/>
<a href="#num">
<text x="0" y="0" class="key tap layer-activator">num</text>
</a></g>
<g class="combo combopos-0">
<rect rx="6" ry="6" x="595" y="26" width="28" height="26" class="combo"/>
<text x="609" y="39" class="combo tap">
<tspan x="609" dy="-0.6em">SV</tspan><tspan x="609" dy="1.2em">…</tspan>
</text>
</g>
<g class="combo combopos-1">
<rect rx="6" ry="6" x="595" y="82" width="28" height="26" class="combo"/>
<text x="609" y="95" class="combo tap">
<tspan x="609" dy="-0.6em">SV</tspan><tspan x="609" dy="1.2em">…</tspan>
</text>
</g>
<g class="combo combopos-2">
<rect rx="6" ry="6" x="595" y="138" width="28" height="26" class="combo"/>
<text x="609" y="151" class="combo tap">
<tspan x="609" dy="-0.6em">SV</tspan><tspan x="609" dy="1.2em">…</tspan>
</text>
</g>
</g>
</g>
<g transform="translate(30, 354)" class="layer-num">
<text x="0" y="28" class="label" id="num">num:</text>
<g transform="translate(0, 56)">
<g transform="translate(30, 87)" class="key trans keypos-0">
<rect rx="6" ry="6" x="-28" y="-26" width="55" height="52" class="key trans"/>
<text x="0" y="0" class="key trans tap">▽</text>
</g>
<g transform="translate(89, 48)" class="key trans keypos-1">
<rect rx="6" ry="6" x="-28" y="-26" width="55" height="52" class="key trans"/>
<text x="0" y="0" class="key trans tap">▽</text>
</g>
<g transform="translate(148, 28)" class="key trans keypos-2">
<rect rx="6" ry="6" x="-28" y="-26" width="55" height="52" class="key trans"/>
<text x="0" y="0" class="key trans tap">▽</text>
</g>
<g transform="translate(208, 50)" class="key trans keypos-3">
<rect rx="6" ry="6" x="-28" y="-26" width="55" height="52" class="key trans"/>
<text x="0" y="0" class="key trans tap">▽</text>
</g>
<g transform="translate(267, 58)" class="key trans keypos-4">
<rect rx="6" ry="6" x="-28" y="-26" width="55" height="52" class="key trans"/>
<text x="0" y="0" class="key trans tap">▽</text>
</g>
<g transform="translate(520, 58)" class="key trans keypos-5">
<rect rx="6" ry="6" x="-28" y="-26" width="55" height="52" class="key trans"/>
<text x="0" y="0" class="key trans tap">▽</text>
</g>
<g transform="translate(580, 50)" class="key keypos-6">
<rect rx="6" ry="6" x="-28" y="-26" width="55" height="52" class="key"/>
<text x="0" y="0" class="key tap">
<tspan x="0" dy="-0.6em">SV</tspan><tspan x="0" dy="1.2em">7</tspan>
</text>
</g>
<g transform="translate(639, 28)" class="key keypos-7">
<rect rx="6" ry="6" x="-28" y="-26" width="55" height="52" class="key"/>
<text x="0" y="0" class="key tap">
<tspan x="0" dy="-0.6em">SV</tspan><tspan x="0" dy="1.2em">8</tspan>
</text>
</g>
<g transform="translate(698, 48)" class="key keypos-8">
<rect rx="6" ry="6" x="-28" y="-26" width="55" height="52" class="key"/>
<text x="0" y="0" class="key tap">
<tspan x="0" dy="-0.6em">SV</tspan><tspan x="0" dy="1.2em">9</tspan>
</text>
</g>
<g transform="translate(758, 87)" class="key keypos-9">
<rect rx="6" ry="6" x="-28" y="-26" width="55" height="52" class="key"/>
<text x="0" y="0" class="key tap">
<tspan x="0" dy="-0.6em">SV</tspan><tspan x="0" dy="1.2em">0</tspan>
</text>
</g>
<g transform="translate(30, 143)" class="key trans keypos-10">
<rect rx="6" ry="6" x="-28" y="-26" width="55" height="52" class="key trans"/>
<text x="0" y="0" class="key trans tap">▽</text>
</g>
<g transform="translate(89, 104)" class="key trans keypos-11">
<rect rx="6" ry="6" x="-28" y="-26" width="55" height="52" class="key trans"/>
<text x="0" y="0" class="key trans tap">▽</text>
</g>
<g transform="translate(148, 84)" class="key trans keypos-12">
<rect rx="6" ry="6" x="-28" y="-26" width="55" height="52" class="key trans"/>
<text x="0" y="0" class="key trans tap">▽</text>
</g>
<g transform="translate(208, 106)" class="key trans keypos-13">
<rect rx="6" ry="6" x="-28" y="-26" width="55" height="52" class="key trans"/>
<text x="0" y="0" class="key trans tap">▽</text>
</g>
<g transform="translate(267, 114)" class="key trans keypos-14">
<rect rx="6" ry="6" x="-28" y="-26" width="55" height="52" class="key trans"/>
<text x="0" y="0" class="key trans tap">▽</text>
</g>
<g transform="translate(520, 114)" class="key trans keypos-15">
<rect rx="6" ry="6" x="-28" y="-26" width="55" height="52" class="key trans"/>
<text x="0" y="0" class="key trans tap">▽</text>
</g>
<g transform="translate(580, 106)" class="key keypos-16">
<rect rx="6" ry="6" x="-28" y="-26" width="55" height="52" class="key"/>
<text x="0" y="0" class="key tap">
<tspan x="0" dy="-0.6em">SV</tspan><tspan x="0" dy="1.2em">4</tspan>
</text>
</g>
<g transform="translate(639, 84)" class="key keypos-17">
<rect rx="6" ry="6" x="-28" y="-26" width="55" height="52" class="key"/>
<text x="0" y="0" class="key tap">
<tspan x="0" dy="-0.6em">SV</tspan><tspan x="0" dy="1.2em">5</tspan>
</text>
</g>
<g transform="translate(698, 104)" class="key keypos-18">
<rect rx="6" ry="6" x="-28" y="-26" width="55" height="52" class="key"/>
<text x="0" y="0" class="key tap">
<tspan x="0" dy="-0.6em">SV</tspan><tspan x="0" dy="1.2em">6</tspan>
</text>
</g>
<g transform="translate(758, 143)" class="key keypos-19">
<rect rx="6" ry="6" x="-28" y="-26" width="55" height="52" class="key"/>
<text x="0" y="0" class="key tap">
<tspan x="0" dy="-0.6em">SV</tspan><tspan x="0" dy="1.2em">PLUS</tspan>
</text>
</g>
<g transform="translate(30, 199)" class="key trans keypos-20">
<rect rx="6" ry="6" x="-28" y="-26" width="55" height="52" class="key trans"/>
<text x="0" y="0" class="key trans tap">▽</text>
</g>
<g transform="translate(89, 160)" class="key trans keypos-21">
<rect rx="6" ry="6" x="-28" y="-26" width="55" height="52" class="key trans"/>
<text x="0" y="0" class="key trans tap">▽</text>
</g>
<g transform="translate(148, 140)" class="key trans keypos-22">
<rect rx="6" ry="6" x="-28" y="-26" width="55" height="52" class="key trans"/>
<text x="0" y="0" class="key trans tap">▽</text>
</g>
<g transform="translate(208, 162)" class="key trans keypos-23">
<rect rx="6" ry="6" x="-28" y="-26" width="55" height="52" class="key trans"/>
<text x="0" y="0" class="key trans tap">▽</text>
</g>
<g transform="translate(267, 170)" class="key trans keypos-24">
<rect rx="6" ry="6" x="-28" y="-26" width="55" height="52" class="key trans"/>
<text x="0" y="0" class="key trans tap">▽</text>
</g>
<g transform="translate(520, 170)" class="key trans keypos-25">
<rect rx="6" ry="6" x="-28" y="-26" width="55" height="52" class="key trans"/>
<text x="0" y="0" class="key trans tap">▽</text>
</g>
<g transform="translate(580, 162)" class="key keypos-26">
<rect rx="6" ry="6" x="-28" y="-26" width="55" height="52" class="key"/>
<text x="0" y="0" class="key tap">
<tspan x="0" dy="-0.6em">SV</tspan><tspan x="0" dy="1.2em">1</tspan>
</text>
</g>
<g transform="translate(639, 140)" class="key keypos-27">
<rect rx="6" ry="6" x="-28" y="-26" width="55" height="52" class="key"/>
<text x="0" y="0" class="key tap">
<tspan x="0" dy="-0.6em">SV</tspan><tspan x="0" dy="1.2em">2</tspan>
</text>
</g>
<g transform="translate(698, 160)" class="key keypos-28">
<rect rx="6" ry="6" x="-28" y="-26" width="55" height="52" class="key"/>
<text x="0" y="0" class="key tap">
<tspan x="0" dy="-0.6em">SV</tspan><tspan x="0" dy="1.2em">3</tspan>
</text>
</g>
<g transform="translate(758, 199)" class="key keypos-29">
<rect rx="6" ry="6" x="-28" y="-26" width="55" height="52" class="key"/>
<text x="0" y="0" class="key tap">
<tspan x="0" dy="-0.6em">SV</tspan><tspan x="0" dy="1.2em">EQUAL</tspan>
</text>
</g>
<g transform="translate(188, 228)" class="key trans keypos-30">
<rect rx="6" ry="6" x="-28" y="-26" width="55" height="52" class="key trans"/>
<text x="0" y="0" class="key trans tap">▽</text>
</g>
<g transform="translate(254, 236) rotate(15.0)" class="key trans keypos-31">
<rect rx="6" ry="6" x="-28" y="-26" width="55" height="52" class="key trans"/>
<text x="0" y="0" class="key trans tap">▽</text>
</g>
<g transform="translate(321, 246) rotate(30.0)" class="key trans keypos-32">
<rect rx="6" ry="6" x="-26" y="-42" width="52" height="85" class="key trans"/>
<text x="0" y="0" class="key trans tap">▽</text>
</g>
<g transform="translate(463, 246) rotate(-30.0)" class="key trans keypos-33">
<rect rx="6" ry="6" x="-26" y="-42" width="52" height="85" class="key trans"/>
<text x="0" y="0" class="key trans tap">▽</text>
</g>
<g transform="translate(533, 235) rotate(-15.0)" class="key trans keypos-34">
<rect rx="6" ry="6" x="-28" y="-26" width="55" height="52" class="key trans"/>
<text x="0" y="0" class="key trans tap">▽</text>
</g>
<g transform="translate(599, 228)" class="key held keypos-35">
<rect rx="6" ry="6" x="-28" y="-26" width="55" height="52" class="key held"/>
</g>
</g>
</g>
<g transform="translate(30, 709)" class="layer-nav">
<text x="0" y="28" class="label" id="nav">nav:</text>
<g transform="translate(0, 56)">
<g transform="translate(30, 87)" class="key keypos-0">
<rect rx="6" ry="6" x="-28" y="-26" width="55" height="52" class="key"/>
<text x="0" y="0" class="key tap"><tspan style="font-size: 88%">&amp;ml_cmnt</tspan></text>
</g>
<g transform="translate(89, 48)" class="key keypos-1">
<rect rx="6" ry="6" x="-28" y="-26" width="55" height="52" class="key"/>
<text x="0" y="0" class="key tap">&amp;rm_imp</text>
</g>
<g transform="translate(148, 28)" class="key trans keypos-2">
<rect rx="6" ry="6" x="-28" y="-26" width="55" height="52" class="key trans"/>
<text x="0" y="0" class="key trans tap">▽</text>
</g>
<g transform="translate(208, 50)" class="key trans keypos-3">
<rect rx="6" ry="6" x="-28" y="-26" width="55" height="52" class="key trans"/>
<text x="0" y="0" class="key trans tap">▽</text>
</g>
<g transform="translate(267, 58)" class="key trans keypos-4">
<rect rx="6" ry="6" x="-28" y="-26" width="55" height="52" class="key trans"/>
<text x="0" y="0" class="key trans tap">▽</text>
</g>
<g transform="translate(520, 58)" class="key keypos-5">
<rect rx="6" ry="6" x="-28" y="-26" width="55" height="52" class="key"/>
<text x="0" y="0" class="key tap">DEL</text>
</g>
<g transform="translate(580, 50)" class="key keypos-6">
<rect rx="6" ry="6" x="-28" y="-26" width="55" height="52" class="key"/>
<text x="0" y="0" class="key tap">HOME</text>
</g>
<g transform="translate(639, 28)" class="key keypos-7">
<rect rx="6" ry="6" x="-28" y="-26" width="55" height="52" class="key"/>
<text x="0" y="0" class="key tap">END</text>
</g>
<g transform="translate(698, 48)" class="key keypos-8">
<rect rx="6" ry="6" x="-28" y="-26" width="55" height="52" class="key"/>
<text x="0" y="0" class="key tap">↹</text>
</g>
<g transform="translate(758, 87)" class="key keypos-9">
<rect rx="6" ry="6" x="-28" y="-26" width="55" height="52" class="key"/>
<text x="0" y="0" class="key tap">BSPC</text>
</g>
<g transform="translate(30, 143)" class="key keypos-10">
<rect rx="6" ry="6" x="-28" y="-26" width="55" height="52" class="key"/>
<text x="0" y="0" class="key tap">⇧</text>
<text x="0" y="24" class="key hold">sticky</text>
</g>
<g transform="translate(89, 104)" class="key keypos-11">
<rect rx="6" ry="6" x="-28" y="-26" width="55" height="52" class="key"/>
<text x="0" y="0" class="key tap">⌃</text>
<text x="0" y="24" class="key hold">sticky</text>
</g>
<g transform="translate(148, 84)" class="key keypos-12">
<rect rx="6" ry="6" x="-28" y="-26" width="55" height="52" class="key"/>
<text x="0" y="0" class="key tap">⎇</text>
<text x="0" y="24" class="key hold">sticky</text>
</g>
<g transform="translate(208, 106)" class="key keypos-13">
<rect rx="6" ry="6" x="-28" y="-26" width="55" height="52" class="key"/>
<text x="0" y="0" class="key tap">⌘</text>
<text x="0" y="24" class="key hold">sticky</text>
</g>
<g transform="translate(267, 114)" class="key trans keypos-14">
<rect rx="6" ry="6" x="-28" y="-26" width="55" height="52" class="key trans"/>
<text x="0" y="0" class="key trans tap">▽</text>
</g>
<g transform="translate(520, 114)" class="key keypos-15">
<rect rx="6" ry="6" x="-28" y="-26" width="55" height="52" class="key"/>
<text x="0" y="0" class="key tap">ESC</text>
<text x="0" y="-24" class="key shifted">`</text>
</g>
<g transform="translate(580, 106)" class="key keypos-16">
<rect rx="6" ry="6" x="-28" y="-26" width="55" height="52" class="key"/>
<text x="0" y="0" class="key tap">←</text>
</g>
<g transform="translate(639, 84)" class="key keypos-17">
<rect rx="6" ry="6" x="-28" y="-26" width="55" height="52" class="key"/>
<text x="0" y="0" class="key tap">↓</text>
</g>
<g transform="translate(698, 104)" class="key keypos-18">
<rect rx="6" ry="6" x="-28" y="-26" width="55" height="52" class="key"/>
<text x="0" y="0" class="key tap">↑</text>
</g>
<g transform="translate(758, 143)" class="key keypos-19">
<rect rx="6" ry="6" x="-28" y="-26" width="55" height="52" class="key"/>
<text x="0" y="0" class="key tap">→</text>
</g>
<g transform="translate(30, 199)" class="key trans keypos-20">
<rect rx="6" ry="6" x="-28" y="-26" width="55" height="52" class="key trans"/>
<text x="0" y="0" class="key trans tap">▽</text>
</g>
<g transform="translate(89, 160)" class="key trans keypos-21">
<rect rx="6" ry="6" x="-28" y="-26" width="55" height="52" class="key trans"/>
<text x="0" y="0" class="key trans tap">▽</text>
</g>
<g transform="translate(148, 140)" class="key trans keypos-22">
<rect rx="6" ry="6" x="-28" y="-26" width="55" height="52" class="key trans"/>
<text x="0" y="0" class="key trans tap">▽</text>
</g>
<g transform="translate(208, 162)" class="key trans keypos-23">
<rect rx="6" ry="6" x="-28" y="-26" width="55" height="52" class="key trans"/>
<text x="0" y="0" class="key trans tap">▽</text>
</g>
<g transform="translate(267, 170)" class="key trans keypos-24">
<rect rx="6" ry="6" x="-28" y="-26" width="55" height="52" class="key trans"/>
<text x="0" y="0" class="key trans tap">▽</text>
</g>
<g transform="translate(520, 170)" class="key trans keypos-25">
<rect rx="6" ry="6" x="-28" y="-26" width="55" height="52" class="key trans"/>
<text x="0" y="0" class="key trans tap">▽</text>
</g>
<g transform="translate(580, 162)" class="key keypos-26">
<rect rx="6" ry="6" x="-28" y="-26" width="55" height="52" class="key"/>
<text x="0" y="0" class="key tap">RET</text>
</g>
<g transform="translate(639, 140)" class="key trans keypos-27">
<rect rx="6" ry="6" x="-28" y="-26" width="55" height="52" class="key trans"/>
<text x="0" y="0" class="key trans tap">▽</text>
</g>
<g transform="translate(698, 160)" class="key trans keypos-28">
<rect rx="6" ry="6" x="-28" y="-26" width="55" height="52" class="key trans"/>
<text x="0" y="0" class="key trans tap">▽</text>
</g>
<g transform="translate(758, 199)" class="key trans keypos-29">
<rect rx="6" ry="6" x="-28" y="-26" width="55" height="52" class="key trans"/>
<text x="0" y="0" class="key trans tap">▽</text>
</g>
<g transform="translate(188, 228)" class="key trans keypos-30">
<rect rx="6" ry="6" x="-28" y="-26" width="55" height="52" class="key trans"/>
<text x="0" y="0" class="key trans tap">▽</text>
</g>
<g transform="translate(254, 236) rotate(15.0)" class="key trans keypos-31">
<rect rx="6" ry="6" x="-28" y="-26" width="55" height="52" class="key trans"/>
<text x="0" y="0" class="key trans tap">▽</text>
</g>
<g transform="translate(321, 246) rotate(30.0)" class="key trans keypos-32">
<rect rx="6" ry="6" x="-26" y="-42" width="52" height="85" class="key trans"/>
<text x="0" y="0" class="key trans tap">▽</text>
</g>
<g transform="translate(463, 246) rotate(-30.0)" class="key trans keypos-33">
<rect rx="6" ry="6" x="-26" y="-42" width="52" height="85" class="key trans"/>
<text x="0" y="0" class="key trans tap">▽</text>
</g>
<g transform="translate(533, 235) rotate(-15.0)" class="key held keypos-34">
<rect rx="6" ry="6" x="-28" y="-26" width="55" height="52" class="key held"/>
</g>
<g transform="translate(599, 228)" class="key trans keypos-35">
<rect rx="6" ry="6" x="-28" y="-26" width="55" height="52" class="key trans"/>
<text x="0" y="0" class="key trans tap">▽</text>
</g>
</g>
</g>
<g transform="translate(30, 1063)" class="layer-fun">
<text x="0" y="28" class="label" id="fun">fun:</text>
<g transform="translate(0, 56)">
<g transform="translate(30, 87)" class="key keypos-0">
<rect rx="6" ry="6" x="-28" y="-26" width="55" height="52" class="key"/>
<text x="0" y="0" class="key tap">PSCRN</text>
</g>
<g transform="translate(89, 48)" class="key keypos-1">
<rect rx="6" ry="6" x="-28" y="-26" width="55" height="52" class="key"/>
<text x="0" y="0" class="key tap">MUTE</text>
</g>
<g transform="translate(148, 28)" class="key keypos-2">
<rect rx="6" ry="6" x="-28" y="-26" width="55" height="52" class="key"/>
<text x="0" y="0" class="key tap">
<tspan x="0" dy="-0.6em">VOL</tspan><tspan x="0" dy="1.2em">DN</tspan>
</text>
</g>
<g transform="translate(208, 50)" class="key keypos-3">
<rect rx="6" ry="6" x="-28" y="-26" width="55" height="52" class="key"/>
<text x="0" y="0" class="key tap">
<tspan x="0" dy="-0.6em">VOL</tspan><tspan x="0" dy="1.2em">UP</tspan>
</text>
</g>
<g transform="translate(267, 58)" class="key keypos-4">
<rect rx="6" ry="6" x="-28" y="-26" width="55" height="52" class="key"/>
<text x="0" y="0" class="key tap">
<tspan x="0" dy="-0.6em">OUT</tspan><tspan x="0" dy="1.2em">USB</tspan>
</text>
</g>
<g transform="translate(520, 58)" class="key trans keypos-5">
<rect rx="6" ry="6" x="-28" y="-26" width="55" height="52" class="key trans"/>
<text x="0" y="0" class="key trans tap">▽</text>
</g>
<g transform="translate(580, 50)" class="key keypos-6">
<rect rx="6" ry="6" x="-28" y="-26" width="55" height="52" class="key"/>
<text x="0" y="0" class="key tap">F7</text>
</g>
<g transform="translate(639, 28)" class="key keypos-7">
<rect rx="6" ry="6" x="-28" y="-26" width="55" height="52" class="key"/>
<text x="0" y="0" class="key tap">F8</text>
</g>
<g transform="translate(698, 48)" class="key keypos-8">
<rect rx="6" ry="6" x="-28" y="-26" width="55" height="52" class="key"/>
<text x="0" y="0" class="key tap">F9</text>
</g>
<g transform="translate(758, 87)" class="key keypos-9">
<rect rx="6" ry="6" x="-28" y="-26" width="55" height="52" class="key"/>
<text x="0" y="0" class="key tap">F12</text>
</g>
<g transform="translate(30, 143)" class="key keypos-10">
<rect rx="6" ry="6" x="-28" y="-26" width="55" height="52" class="key"/>
<text x="0" y="0" class="key tap">BT</text>
<text x="0" y="24" class="key hold">0</text>
</g>
<g transform="translate(89, 104)" class="key keypos-11">
<rect rx="6" ry="6" x="-28" y="-26" width="55" height="52" class="key"/>
<text x="0" y="0" class="key tap">BT</text>
<text x="0" y="24" class="key hold">1</text>
</g>
<g transform="translate(148, 84)" class="key keypos-12">
<rect rx="6" ry="6" x="-28" y="-26" width="55" height="52" class="key"/>
<text x="0" y="0" class="key tap">BT</text>
<text x="0" y="24" class="key hold">2</text>
</g>
<g transform="translate(208, 106)" class="key keypos-13">
<rect rx="6" ry="6" x="-28" y="-26" width="55" height="52" class="key"/>
<text x="0" y="0" class="key tap">BT</text>
<text x="0" y="24" class="key hold">3</text>
</g>
<g transform="translate(267, 114)" class="key keypos-14">
<rect rx="6" ry="6" x="-28" y="-26" width="55" height="52" class="key"/>
<text x="0" y="0" class="key tap">BT</text>
<text x="0" y="24" class="key hold">4</text>
</g>
<g transform="translate(520, 114)" class="key trans keypos-15">
<rect rx="6" ry="6" x="-28" y="-26" width="55" height="52" class="key trans"/>
<text x="0" y="0" class="key trans tap">▽</text>
</g>
<g transform="translate(580, 106)" class="key keypos-16">
<rect rx="6" ry="6" x="-28" y="-26" width="55" height="52" class="key"/>
<text x="0" y="0" class="key tap">F4</text>
</g>
<g transform="translate(639, 84)" class="key keypos-17">
<rect rx="6" ry="6" x="-28" y="-26" width="55" height="52" class="key"/>
<text x="0" y="0" class="key tap">F5</text>
</g>
<g transform="translate(698, 104)" class="key keypos-18">
<rect rx="6" ry="6" x="-28" y="-26" width="55" height="52" class="key"/>
<text x="0" y="0" class="key tap">F6</text>
</g>
<g transform="translate(758, 143)" class="key keypos-19">
<rect rx="6" ry="6" x="-28" y="-26" width="55" height="52" class="key"/>
<text x="0" y="0" class="key tap">F11</text>
</g>
<g transform="translate(30, 199)" class="key keypos-20">
<rect rx="6" ry="6" x="-28" y="-26" width="55" height="52" class="key"/>
<text x="0" y="0" class="key tap">
<tspan x="0" dy="-0.6em">BT</tspan><tspan x="0" dy="1.2em">CLR</tspan>
</text>
</g>
<g transform="translate(89, 160)" class="key keypos-21">
<rect rx="6" ry="6" x="-28" y="-26" width="55" height="52" class="key"/>
<text x="0" y="0" class="key tap">PREV</text>
</g>
<g transform="translate(148, 140)" class="key keypos-22">
<rect rx="6" ry="6" x="-28" y="-26" width="55" height="52" class="key"/>
<text x="0" y="0" class="key tap">PP</text>
</g>
<g transform="translate(208, 162)" class="key keypos-23">
<rect rx="6" ry="6" x="-28" y="-26" width="55" height="52" class="key"/>
<text x="0" y="0" class="key tap">NEXT</text>
</g>
<g transform="translate(267, 170)" class="key keypos-24">
<rect rx="6" ry="6" x="-28" y="-26" width="55" height="52" class="key"/>
<text x="0" y="0" class="key tap">
<tspan x="0" dy="-0.6em">OUT</tspan><tspan x="0" dy="1.2em">BLE</tspan>
</text>
</g>
<g transform="translate(520, 170)" class="key trans keypos-25">
<rect rx="6" ry="6" x="-28" y="-26" width="55" height="52" class="key trans"/>
<text x="0" y="0" class="key trans tap">▽</text>
</g>
<g transform="translate(580, 162)" class="key keypos-26">
<rect rx="6" ry="6" x="-28" y="-26" width="55" height="52" class="key"/>
<text x="0" y="0" class="key tap">F1</text>
</g>
<g transform="translate(639, 140)" class="key keypos-27">
<rect rx="6" ry="6" x="-28" y="-26" width="55" height="52" class="key"/>
<text x="0" y="0" class="key tap">F2</text>
</g>
<g transform="translate(698, 160)" class="key keypos-28">
<rect rx="6" ry="6" x="-28" y="-26" width="55" height="52" class="key"/>
<text x="0" y="0" class="key tap">F3</text>
</g>
<g transform="translate(758, 199)" class="key keypos-29">
<rect rx="6" ry="6" x="-28" y="-26" width="55" height="52" class="key"/>
<text x="0" y="0" class="key tap">F10</text>
</g>
<g transform="translate(188, 228)" class="key trans keypos-30">
<rect rx="6" ry="6" x="-28" y="-26" width="55" height="52" class="key trans"/>
<text x="0" y="0" class="key trans tap">▽</text>
</g>
<g transform="translate(254, 236) rotate(15.0)" class="key trans keypos-31">
<rect rx="6" ry="6" x="-28" y="-26" width="55" height="52" class="key trans"/>
<text x="0" y="0" class="key trans tap">▽</text>
</g>
<g transform="translate(321, 246) rotate(30.0)" class="key trans keypos-32">
<rect rx="6" ry="6" x="-26" y="-42" width="52" height="85" class="key trans"/>
<text x="0" y="0" class="key trans tap">▽</text>
</g>
<g transform="translate(463, 246) rotate(-30.0)" class="key trans keypos-33">
<rect rx="6" ry="6" x="-26" y="-42" width="52" height="85" class="key trans"/>
<text x="0" y="0" class="key trans tap">▽</text>
</g>
<g transform="translate(533, 235) rotate(-15.0)" class="key trans keypos-34">
<rect rx="6" ry="6" x="-28" y="-26" width="55" height="52" class="key trans"/>
<text x="0" y="0" class="key trans tap">▽</text>
</g>
<g transform="translate(599, 228)" class="key trans keypos-35">
<rect rx="6" ry="6" x="-28" y="-26" width="55" height="52" class="key trans"/>
<text x="0" y="0" class="key trans tap">▽</text>
</g>
</g>
</g>
<g transform="translate(30, 1417)" class="layer-sym">
<text x="0" y="28" class="label" id="sym">sym:</text>
<g transform="translate(0, 56)">
<g transform="translate(30, 87)" class="key keypos-0">
<rect rx="6" ry="6" x="-28" y="-26" width="55" height="52" class="key"/>
<text x="0" y="0" class="key tap">
<tspan x="0" dy="-0.6em">SV</tspan><tspan x="0" dy="1.2em">TILDE</tspan>
</text>
</g>
<g transform="translate(89, 48)" class="key keypos-1">
<rect rx="6" ry="6" x="-28" y="-26" width="55" height="52" class="key"/>
<text x="0" y="0" class="key tap">
<tspan x="0" dy="-0.6em">SV</tspan><tspan x="0" dy="1.2em">GRAVE</tspan>
</text>
</g>
<g transform="translate(148, 28)" class="key keypos-2">
<rect rx="6" ry="6" x="-28" y="-26" width="55" height="52" class="key"/>
<text x="0" y="0" class="key tap">
<tspan x="0" dy="-0.6em">SV</tspan><tspan x="0" dy="1.2em">APOS</tspan>
</text>
</g>
<g transform="translate(208, 50)" class="key keypos-3">
<rect rx="6" ry="6" x="-28" y="-26" width="55" height="52" class="key"/>
<text x="0" y="0" class="key tap">
<tspan x="0" dy="-0.6em">SV</tspan><tspan x="0" dy="1.2em">DQT</tspan>
</text>
</g>
<g transform="translate(267, 58)" class="key keypos-4">
<rect rx="6" ry="6" x="-28" y="-26" width="55" height="52" class="key"/>
<text x="0" y="0" class="key tap">
<tspan x="0" dy="-0.6em">SV</tspan><tspan x="0" dy="1.2em">ACUTE</tspan>
</text>
</g>
<g transform="translate(520, 58)" class="key keypos-5">
<rect rx="6" ry="6" x="-28" y="-26" width="55" height="52" class="key"/>
<text x="0" y="0" class="key tap">
<tspan x="0" dy="-0.6em">SV</tspan><tspan x="0" dy="1.2em">STAR</tspan>
</text>
</g>
<g transform="translate(580, 50)" class="key trans keypos-6">
<rect rx="6" ry="6" x="-28" y="-26" width="55" height="52" class="key trans"/>
<text x="0" y="0" class="key trans tap">▽</text>
</g>
<g transform="translate(639, 28)" class="key keypos-7">
<rect rx="6" ry="6" x="-28" y="-26" width="55" height="52" class="key"/>
<text x="0" y="0" class="key tap">
<tspan x="0" dy="-1.2em">SV</tspan><tspan x="0" dy="1.2em">FRAC</tspan><tspan x="0" dy="1.2em">…</tspan>
</text>
</g>
<g transform="translate(698, 48)" class="key keypos-8">
<rect rx="6" ry="6" x="-28" y="-26" width="55" height="52" class="key"/>
<text x="0" y="0" class="key tap">
<tspan x="0" dy="-0.6em">SV</tspan><tspan x="0" dy="1.2em">PRCNT</tspan>
</text>
</g>
<g transform="translate(758, 87)" class="key keypos-9">
<rect rx="6" ry="6" x="-28" y="-26" width="55" height="52" class="key"/>
<text x="0" y="0" class="key tap">
<tspan x="0" dy="-0.6em">SV</tspan><tspan x="0" dy="1.2em">MINUS</tspan>
</text>
</g>
<g transform="translate(30, 143)" class="key keypos-10">
<rect rx="6" ry="6" x="-28" y="-26" width="55" height="52" class="key"/>
<text x="0" y="0" class="key tap">
<tspan x="0" dy="-0.6em">SV</tspan><tspan x="0" dy="1.2em">LT</tspan>
</text>
</g>
<g transform="translate(89, 104)" class="key keypos-11">
<rect rx="6" ry="6" x="-28" y="-26" width="55" height="52" class="key"/>
<text x="0" y="0" class="key tap">
<tspan x="0" dy="-0.6em">SV</tspan><tspan x="0" dy="1.2em">LBRC</tspan>
</text>
</g>
<g transform="translate(148, 84)" class="key keypos-12">
<rect rx="6" ry="6" x="-28" y="-26" width="55" height="52" class="key"/>
<text x="0" y="0" class="key tap">
<tspan x="0" dy="-0.6em">SV</tspan><tspan x="0" dy="1.2em">LPAR</tspan>
</text>
</g>
<g transform="translate(208, 106)" class="key keypos-13">
<rect rx="6" ry="6" x="-28" y="-26" width="55" height="52" class="key"/>
<text x="0" y="0" class="key tap">
<tspan x="0" dy="-0.6em">SV</tspan><tspan x="0" dy="1.2em">LBKT</tspan>
</text>
</g>
<g transform="translate(267, 114)" class="key keypos-14">
<rect rx="6" ry="6" x="-28" y="-26" width="55" height="52" class="key"/>
<text x="0" y="0" class="key tap">
<tspan x="0" dy="-0.6em">SV</tspan><tspan x="0" dy="1.2em">DLLR</tspan>
</text>
</g>
<g transform="translate(520, 114)" class="key keypos-15">
<rect rx="6" ry="6" x="-28" y="-26" width="55" height="52" class="key"/>
<text x="0" y="0" class="key tap">
<tspan x="0" dy="-0.6em">SV</tspan><tspan x="0" dy="1.2em">BSLH</tspan>
</text>
</g>
<g transform="translate(580, 106)" class="key keypos-16">
<rect rx="6" ry="6" x="-28" y="-26" width="55" height="52" class="key"/>
<text x="0" y="0" class="key tap">
<tspan x="0" dy="-0.6em">SV</tspan><tspan x="0" dy="1.2em">AMPS</tspan>
</text>
</g>
<g transform="translate(639, 84)" class="key keypos-17">
<rect rx="6" ry="6" x="-28" y="-26" width="55" height="52" class="key"/>
<text x="0" y="0" class="key tap">
<tspan x="0" dy="-0.6em">SV</tspan><tspan x="0" dy="1.2em">PIPE</tspan>
</text>
</g>
<g transform="translate(698, 104)" class="key keypos-18">
<rect rx="6" ry="6" x="-28" y="-26" width="55" height="52" class="key"/>
<text x="0" y="0" class="key tap">
<tspan x="0" dy="-0.6em">SV</tspan><tspan x="0" dy="1.2em">POUND</tspan>
</text>
</g>
<g transform="translate(758, 143)" class="key keypos-19">
<rect rx="6" ry="6" x="-28" y="-26" width="55" height="52" class="key"/>
<text x="0" y="0" class="key tap">
<tspan x="0" dy="-0.6em">SV</tspan><tspan x="0" dy="1.2em">PLUS</tspan>
</text>
</g>
<g transform="translate(30, 199)" class="key keypos-20">
<rect rx="6" ry="6" x="-28" y="-26" width="55" height="52" class="key"/>
<text x="0" y="0" class="key tap">
<tspan x="0" dy="-0.6em">SV</tspan><tspan x="0" dy="1.2em">GT</tspan>
</text>
</g>
<g transform="translate(89, 160)" class="key keypos-21">
<rect rx="6" ry="6" x="-28" y="-26" width="55" height="52" class="key"/>
<text x="0" y="0" class="key tap">
<tspan x="0" dy="-0.6em">SV</tspan><tspan x="0" dy="1.2em">RBRC</tspan>
</text>
</g>
<g transform="translate(148, 140)" class="key keypos-22">
<rect rx="6" ry="6" x="-28" y="-26" width="55" height="52" class="key"/>
<text x="0" y="0" class="key tap">
<tspan x="0" dy="-0.6em">SV</tspan><tspan x="0" dy="1.2em">RPAR</tspan>
</text>
</g>
<g transform="translate(208, 162)" class="key keypos-23">
<rect rx="6" ry="6" x="-28" y="-26" width="55" height="52" class="key"/>
<text x="0" y="0" class="key tap">
<tspan x="0" dy="-0.6em">SV</tspan><tspan x="0" dy="1.2em">RBKT</tspan>
</text>
</g>
<g transform="translate(267, 170)" class="key keypos-24">
<rect rx="6" ry="6" x="-28" y="-26" width="55" height="52" class="key"/>
<text x="0" y="0" class="key tap">
<tspan x="0" dy="-0.6em">SV</tspan><tspan x="0" dy="1.2em">AT</tspan>
</text>
</g>
<g transform="translate(520, 170)" class="key keypos-25">
<rect rx="6" ry="6" x="-28" y="-26" width="55" height="52" class="key"/>
<text x="0" y="0" class="key tap">
<tspan x="0" dy="-0.6em">SV</tspan><tspan x="0" dy="1.2em">FSLH</tspan>
</text>
</g>
<g transform="translate(580, 162)" class="key trans keypos-26">
<rect rx="6" ry="6" x="-28" y="-26" width="55" height="52" class="key trans"/>
<text x="0" y="0" class="key trans tap">▽</text>
</g>
<g transform="translate(639, 140)" class="key trans keypos-27">
<rect rx="6" ry="6" x="-28" y="-26" width="55" height="52" class="key trans"/>
<text x="0" y="0" class="key trans tap">▽</text>
</g>
<g transform="translate(698, 160)" class="key trans keypos-28">
<rect rx="6" ry="6" x="-28" y="-26" width="55" height="52" class="key trans"/>
<text x="0" y="0" class="key trans tap">▽</text>
</g>
<g transform="translate(758, 199)" class="key keypos-29">
<rect rx="6" ry="6" x="-28" y="-26" width="55" height="52" class="key"/>
<text x="0" y="0" class="key tap">
<tspan x="0" dy="-0.6em">SV</tspan><tspan x="0" dy="1.2em">EQUAL</tspan>
</text>
</g>
<g transform="translate(188, 228)" class="key trans keypos-30">
<rect rx="6" ry="6" x="-28" y="-26" width="55" height="52" class="key trans"/>
<text x="0" y="0" class="key trans tap">▽</text>
</g>
<g transform="translate(254, 236) rotate(15.0)" class="key held keypos-31">
<rect rx="6" ry="6" x="-28" y="-26" width="55" height="52" class="key held"/>
</g>
<g transform="translate(321, 246) rotate(30.0)" class="key trans keypos-32">
<rect rx="6" ry="6" x="-26" y="-42" width="52" height="85" class="key trans"/>
<text x="0" y="0" class="key trans tap">▽</text>
</g>
<g transform="translate(463, 246) rotate(-30.0)" class="key trans keypos-33">
<rect rx="6" ry="6" x="-26" y="-42" width="52" height="85" class="key trans"/>
<text x="0" y="0" class="key trans tap">▽</text>
</g>
<g transform="translate(533, 235) rotate(-15.0)" class="key trans keypos-34">
<rect rx="6" ry="6" x="-28" y="-26" width="55" height="52" class="key trans"/>
<text x="0" y="0" class="key trans tap">▽</text>
</g>
<g transform="translate(599, 228)" class="key trans keypos-35">
<rect rx="6" ry="6" x="-28" y="-26" width="55" height="52" class="key trans"/>
<text x="0" y="0" class="key trans tap">▽</text>
</g>
</g>
</g>
</svg>
